HIERARCHY
ROOT Hips
{
	OFFSET 0.000000 0.000000 0.000000
	CHANNELS 6 Xposition Yposition Zposition Zrotation Yrotation Xrotation 
	JOINT Spine1
	{
		OFFSET -0.013727 5.003763 -0.053727
		CHANNELS 3 Zrotation Yrotation Xrotation
		JOINT Spine2
		{
			OFFSET -0.000000 7.125302 -0.029824
			CHANNELS 3 Zrotation Yrotation Xrotation
			JOINT Chest
			{
				OFFSET -0.000001 7.550064 -0.815971
				CHANNELS 3 Zrotation Yrotation Xrotation
				JOINT Neck1
				{
					OFFSET -0.181677 26.311296 -0.553348
					CHANNELS 3 Zrotation Yrotation Xrotation
					JOINT Neck2
					{
						OFFSET -0.000003 7.709400 2.302585
						CHANNELS 3 Zrotation Yrotation Xrotation
						JOINT Head
						{
							OFFSET -0.000005 6.128913 1.953708
							CHANNELS 3 Zrotation Yrotation Xrotation
							JOINT HeadEnd
							{
								OFFSET 0.003598 16.065401 -1.835379
								CHANNELS 3 Zrotation Yrotation Xrotation
								End Site
								{
									OFFSET 0.000000 0.000000 0.000000
								}
							}
							JOINT Jaw
							{
								OFFSET 0.002637 0.475593 3.094941
								CHANNELS 3 Zrotation Yrotation Xrotation
								End Site
								{
									OFFSET 0.000000 0.000000 0.000000
								}
							}
							JOINT LeftEye
							{
								OFFSET 3.206380 5.380208 7.586883
								CHANNELS 3 Zrotation Yrotation Xrotation
								End Site
								{
									OFFSET 0.000000 0.000000 0.000000
								}
							}
							JOINT RightEye
							{
								OFFSET -3.222440 5.361867 7.558233
								CHANNELS 3 Zrotation Yrotation Xrotation
								End Site
								{
									OFFSET 0.000000 0.000000 0.000000
								}
							}
						}
					}
				}
				JOINT LeftShoulder
				{
					OFFSET 1.621652 23.237164 5.113413
					CHANNELS 3 Zrotation Yrotation Xrotation
					JOINT LeftArm
					{
						OFFSET 14.919845 -0.000001 -5.502326
						CHANNELS 3 Zrotation Yrotation Xrotation
						JOINT LeftForeArm
						{
							OFFSET 28.739309 0.000003 -0.002588
							CHANNELS 3 Zrotation Yrotation Xrotation
							JOINT LeftHand
							{
								OFFSET 27.093979 -0.000003 0.002610
								CHANNELS 3 Zrotation Yrotation Xrotation
								JOINT LeftHandThumb1
								{
									OFFSET 2.276480 -1.392045 3.191413
									CHANNELS 3 Zrotation Yrotation Xrotation
									JOINT LeftHandThumb2
									{
										OFFSET 4.012841 -1.828126 1.641655
										CHANNELS 3 Zrotation Yrotation Xrotation
										JOINT LeftHandThumb3
										{
											OFFSET 2.798516 0.000000 -0.000003
											CHANNELS 3 Zrotation Yrotation Xrotation
											JOINT LeftHandThumbEnd
											{
												OFFSET 3.180791 -0.000002 0.000003
												CHANNELS 3 Zrotation Yrotation Xrotation
												End Site
												{
													OFFSET 0.000000 0.000000 0.000000
												}
											}
										}
									}
								}
								JOINT LeftHandIndex1
								{
									OFFSET 3.247553 -0.531998 2.296170
									CHANNELS 3 Zrotation Yrotation Xrotation
									JOINT LeftHandIndex2
									{
										OFFSET 6.364580 0.012062 0.178600
										CHANNELS 3 Zrotation Yrotation Xrotation
										JOINT LeftHandIndex3
										{
											OFFSET 3.662366 0.000001 -0.000001
											CHANNELS 3 Zrotation Yrotation Xrotation
											JOINT LeftHandIndex4
											{
												OFFSET 2.329243 0.000002 0.000004
												CHANNELS 3 Zrotation Yrotation Xrotation
												JOINT LeftHandIndexEnd
												{
													OFFSET 2.759619 -0.180539 -0.113023
													CHANNELS 3 Zrotation Yrotation Xrotation
													End Site
													{
														OFFSET 0.000000 0.000000 0.000000
													}
												}
											}
										}
									}
								}
								JOINT LeftHandMiddle1
								{
									OFFSET 3.163499 0.240981 1.000332
									CHANNELS 3 Zrotation Yrotation Xrotation
									JOINT LeftHandMiddle2
									{
										OFFSET 6.190777 -0.259276 -1.002548
										CHANNELS 3 Zrotation Yrotation Xrotation
										JOINT LeftHandMiddle3
										{
											OFFSET 4.356522 -0.000005 -0.000000
											CHANNELS 3 Zrotation Yrotation Xrotation
											JOINT LeftHandMiddle4
											{
												OFFSET 2.996875 -0.000007 0.000001
												CHANNELS 3 Zrotation Yrotation Xrotation
												JOINT LeftHandMiddleEnd
												{
													OFFSET 2.304294 -0.294571 -0.031739
													CHANNELS 3 Zrotation Yrotation Xrotation
													End Site
													{
														OFFSET 0.000000 0.000000 0.000000
													}
												}
											}
										}
									}
								}
								JOINT LeftHandRing1
								{
									OFFSET 2.882641 -0.053650 -0.322544
									CHANNELS 3 Zrotation Yrotation Xrotation
									JOINT LeftHandRing2
									{
										OFFSET 5.854542 -0.486203 -1.373841
										CHANNELS 3 Zrotation Yrotation Xrotation
										JOINT LeftHandRing3
										{
											OFFSET 4.350580 0.000000 0.000003
											CHANNELS 3 Zrotation Yrotation Xrotation
											JOINT LeftHandRing4
											{
												OFFSET 2.651324 0.000007 0.000003
												CHANNELS 3 Zrotation Yrotation Xrotation
												JOINT LeftHandRingEnd
												{
													OFFSET 1.936110 0.077685 -0.000070
													CHANNELS 3 Zrotation Yrotation Xrotation
													End Site
													{
														OFFSET 0.000000 0.000000 0.000000
													}
												}
											}
										}
									}
								}
								JOINT LeftHandPinky1
								{
									OFFSET 2.865499 -0.310003 -1.600378
									CHANNELS 3 Zrotation Yrotation Xrotation
									JOINT LeftHandPinky2
									{
										OFFSET 5.087853 -1.331142 -1.771231
										CHANNELS 3 Zrotation Yrotation Xrotation
										JOINT LeftHandPinky3
										{
											OFFSET 3.070975 0.000003 0.000001
											CHANNELS 3 Zrotation Yrotation Xrotation
											JOINT LeftHandPinky4
											{
												OFFSET 1.549667 -0.000000 0.000001
												CHANNELS 3 Zrotation Yrotation Xrotation
												JOINT LeftHandPinkyEnd
												{
													OFFSET 1.944895 -0.157801 0.057219
													CHANNELS 3 Zrotation Yrotation Xrotation
													End Site
													{
														OFFSET 0.000000 0.000000 0.000000
													}
												}
											}
										}
									}
								}
							}
						}
					}
				}
				JOINT RightShoulder
				{
					OFFSET -1.380118 23.180307 5.214158
					CHANNELS 3 Zrotation Yrotation Xrotation
					JOINT RightArm
					{
						OFFSET -15.037197 0.000013 -5.545604
						CHANNELS 3 Zrotation Yrotation Xrotation
						JOINT RightForeArm
						{
							OFFSET -28.736639 0.000003 -0.002598
							CHANNELS 3 Zrotation Yrotation Xrotation
							JOINT RightHand
							{
								OFFSET -27.133617 0.000000 0.002612
								CHANNELS 3 Zrotation Yrotation Xrotation
								JOINT RightHandThumb1
								{
									OFFSET -2.274037 -1.383990 3.163127
									CHANNELS 3 Zrotation Yrotation Xrotation
									JOINT RightHandThumb2
									{
										OFFSET -4.011428 -1.827468 1.640915
										CHANNELS 3 Zrotation Yrotation Xrotation
										JOINT RightHandThumb3
										{
											OFFSET -2.794934 -0.000003 -0.000003
											CHANNELS 3 Zrotation Yrotation Xrotation
											JOINT RightHandThumbEnd
											{
												OFFSET -3.183854 0.000003 -0.000000
												CHANNELS 3 Zrotation Yrotation Xrotation
												End Site
												{
													OFFSET 0.000000 0.000000 0.000000
												}
											}
										}
									}
								}
								JOINT RightHandIndex1
								{
									OFFSET -3.253270 -0.520060 2.282866
									CHANNELS 3 Zrotation Yrotation Xrotation
									JOINT RightHandIndex2
									{
										OFFSET -6.341918 0.012472 0.178266
										CHANNELS 3 Zrotation Yrotation Xrotation
										JOINT RightHandIndex3
										{
											OFFSET -3.654875 -0.000008 -0.000001
											CHANNELS 3 Zrotation Yrotation Xrotation
											JOINT RightHandIndex4
											{
												OFFSET -2.327586 -0.000000 -0.000000
												CHANNELS 3 Zrotation Yrotation Xrotation
												JOINT RightHandIndexEnd
												{
													OFFSET -2.761789 -0.180657 -0.113078
													CHANNELS 3 Zrotation Yrotation Xrotation
													End Site
													{
														OFFSET 0.000000 0.000000 0.000000
													}
												}
											}
										}
									}
								}
								JOINT RightHandMiddle1
								{
									OFFSET -3.168106 0.246594 1.001030
									CHANNELS 3 Zrotation Yrotation Xrotation
									JOINT RightHandMiddle2
									{
										OFFSET -6.180829 -0.258836 -1.000896
										CHANNELS 3 Zrotation Yrotation Xrotation
										JOINT RightHandMiddle3
										{
											OFFSET -4.348906 0.000000 -0.000000
											CHANNELS 3 Zrotation Yrotation Xrotation
											JOINT RightHandMiddle4
											{
												OFFSET -3.000243 -0.000003 -0.000002
												CHANNELS 3 Zrotation Yrotation Xrotation
												JOINT RightHandMiddleEnd
												{
													OFFSET -2.302518 -0.294371 -0.031706
													CHANNELS 3 Zrotation Yrotation Xrotation
													End Site
													{
														OFFSET 0.000000 0.000000 0.000000
													}
												}
											}
										}
									}
								}
								JOINT RightHandRing1
								{
									OFFSET -2.885693 -0.067952 -0.308858
									CHANNELS 3 Zrotation Yrotation Xrotation
									JOINT RightHandRing2
									{
										OFFSET -5.854196 -0.486132 -1.373732
										CHANNELS 3 Zrotation Yrotation Xrotation
										JOINT RightHandRing3
										{
											OFFSET -4.338814 -0.000004 -0.000000
											CHANNELS 3 Zrotation Yrotation Xrotation
											JOINT RightHandRing4
											{
												OFFSET -2.654907 -0.000004 0.000003
												CHANNELS 3 Zrotation Yrotation Xrotation
												JOINT RightHandRingEnd
												{
													OFFSET -1.933570 0.077524 -0.000053
													CHANNELS 3 Zrotation Yrotation Xrotation
													End Site
													{
														OFFSET 0.000000 0.000000 0.000000
													}
												}
											}
										}
									}
								}
								JOINT RightHandPinky1
								{
									OFFSET -2.866429 -0.342798 -1.584145
									CHANNELS 3 Zrotation Yrotation Xrotation
									JOINT RightHandPinky2
									{
										OFFSET -5.091370 -1.332054 -1.772385
										CHANNELS 3 Zrotation Yrotation Xrotation
										JOINT RightHandPinky3
										{
											OFFSET -3.062667 -0.000007 0.000000
											CHANNELS 3 Zrotation Yrotation Xrotation
											JOINT RightHandPinky4
											{
												OFFSET -1.546526 0.000006 -0.000002
												CHANNELS 3 Zrotation Yrotation Xrotation
												JOINT RightHandPinkyEnd
												{
													OFFSET -1.945122 -0.157721 0.057211
													CHANNELS 3 Zrotation Yrotation Xrotation
													End Site
													{
														OFFSET 0.000000 0.000000 0.000000
													}
												}
											}
										}
									}
								}
							}
						}
					}
				}
			}
		}
	}
	JOINT LeftLeg
	{
		OFFSET 10.043214 -8.434526 2.595655
		CHANNELS 3 Zrotation Yrotation Xrotation
		JOINT LeftShin
		{
			OFFSET -0.000001 -43.221752 -0.802913
			CHANNELS 3 Zrotation Yrotation Xrotation
			JOINT LeftFoot
			{
				OFFSET 0.000002 -42.155094 -3.481522
				CHANNELS 3 Zrotation Yrotation Xrotation
				JOINT LeftToeBase
				{
					OFFSET -0.000000 -5.059475 13.231529
					CHANNELS 3 Zrotation Yrotation Xrotation
					JOINT LeftToeEnd
					{
						OFFSET -0.009607 -1.647615 6.513018
						CHANNELS 3 Zrotation Yrotation Xrotation
						End Site
						{
							OFFSET 0.000000 0.000000 0.000000
						}
					}
				}
			}
		}
	}
	JOINT RightLeg
	{
		OFFSET -10.047277 -8.295259 2.620317
		CHANNELS 3 Zrotation Yrotation Xrotation
		JOINT RightShin
		{
			OFFSET 0.000001 -43.362209 -0.805556
			CHANNELS 3 Zrotation Yrotation Xrotation
			JOINT RightFoot
			{
				OFFSET 0.000002 -42.117393 -3.478399
				CHANNELS 3 Zrotation Yrotation Xrotation
				JOINT RightToeBase
				{
					OFFSET -0.000001 -5.079609 13.284196
					CHANNELS 3 Zrotation Yrotation Xrotation
					JOINT RightToeEnd
					{
						OFFSET 0.009532 -1.634383 6.460591
						CHANNELS 3 Zrotation Yrotation Xrotation
						End Site
						{
							OFFSET 0.000000 0.000000 0.000000
						}
					}
				}
			}
		}
	}
}
MOTION
Frames: 5
Frame Time: 0.033333
66.066620 92.994324 -188.013245 0.891312 -7.569011 -13.831491 -0.969660 0.353251 6.297780 0.171299 1.037874 -2.715310 2.443534 -0.482718 12.603286 -0.170008 3.252419 28.385012 -1.716348 -4.691999 -3.750008 -2.242425 -5.743276 -8.901326 0.000077 -0.000022 0.000005 -0.017425 0.025767 0.073700 0.692509 -3.703933 -10.525939 -0.728290 3.747751 -10.541234 -8.839208 1.807217 14.544547 -51.741009 13.110456 -30.053200 179.267426 -81.079445 -178.296417 3.015378 6.206926 -52.936798 -5.882099 9.861279 0.702588 -10.936859 -0.360576 7.156197 -0.000000 8.774813 -0.000002 -16.246506 18.525620 6.142313 -1.844031 2.498503 -2.507277 -10.163590 4.678940 4.621104 -20.975994 -0.000002 0.000001 -21.226254 2.451693 -3.593995 0.000000 -0.000006 -0.000001 -1.362680 2.240797 -0.746323 -21.334890 0.584909 3.008320 -13.821197 -0.000002 0.000001 -23.887131 -0.249078 -0.839483 -60.755280 2.443847 -1.163701 -0.294025 1.679686 0.833255 -14.218194 0.093215 1.300579 -34.211998 -0.287562 0.967168 -20.033176 0.964535 1.212841 0.000002 -0.000000 -0.000000 -3.440386 0.788233 0.501655 -15.928167 -3.167305 2.999703 -6.338816 -0.000001 0.000001 -18.123415 3.648176 -4.905662 -0.000003 -0.000000 -0.000002 12.439524 10.182332 15.279069 40.581722 3.765890 -34.326008 -4.318272 73.105217 -3.520536 -15.178116 1.022929 -43.507114 2.243538 -5.255033 -3.180156 14.282873 -0.826592 6.952497 -0.000003 -12.690592 -0.000001 15.246406 -17.378628 2.937084 1.665662 -1.955920 -2.878297 4.727793 -4.170582 4.993918 11.020509 0.000003 -0.000001 12.109032 -3.735709 -2.866780 0.000000 -0.000000 0.000000 1.291984 -1.928548 -1.498089 14.800109 0.567469 3.865603 14.242553 -1.341734 -6.660650 19.631937 0.143926 -0.648243 48.559818 -0.031437 -6.365270 0.353031 -1.511149 -0.031940 20.222767 3.684306 2.316628 18.787245 0.000004 0.000000 10.751609 -0.479867 1.397904 0.000000 0.000000 0.000000 3.273804 0.305947 -0.580110 21.486788 11.830363 2.266132 8.162914 0.000001 0.000000 18.399048 -3.798977 -4.940567 0.000003 0.000000 -0.000001 11.484489 14.660638 4.098148 -0.224262 -0.740273 37.204357 -7.640867 -10.555917 -23.842234 1.616472 -1.784000 -0.996681 -0.000000 0.000000 0.000002 -27.597273 -20.152615 -7.174592 0.902541 1.082324 36.527245 21.906431 3.497001 9.655556 -1.477713 0.943340 -3.741392 -0.000000 -0.000000 -0.000001 
66.075706 93.060890 -188.102280 0.803517 -7.168693 -13.952908 -1.051232 0.376676 6.338092 0.151631 0.966505 -2.703137 2.360155 -0.599233 12.643623 -0.626232 3.698096 28.710009 -1.854456 -4.910817 -3.742367 -2.487923 -5.890727 -8.414889 0.000077 -0.000022 0.000006 -0.020584 0.019729 0.068835 0.687552 -3.717395 -10.518926 -0.732440 3.751908 -10.542186 -8.357677 1.307590 14.489899 -50.320038 12.365544 -29.388609 179.699387 -82.659271 -178.805466 3.147082 6.003653 -52.234997 -5.882100 9.861278 0.702590 -10.936862 -0.360576 7.156198 0.000002 8.774811 -0.000001 -16.208305 18.514605 6.135561 -1.844030 2.498502 -2.507275 -10.163590 4.678939 4.621104 -20.976000 -0.000005 0.000003 -21.226255 2.451691 -3.593991 0.000001 -0.000006 0.000000 -1.362682 2.240796 -0.746323 -21.334898 0.584906 3.008322 -13.821198 -0.000004 0.000003 -23.887135 -0.249080 -0.839479 -60.519257 2.431822 -1.165326 -0.294023 1.679686 0.833255 -14.218195 0.093213 1.300579 -34.212013 -0.287566 0.967172 -20.033186 0.964534 1.212844 0.000000 0.000000 0.000000 -3.440385 0.788232 0.501655 -15.928173 -3.167308 2.999705 -6.338818 -0.000002 0.000002 -18.123415 3.648175 -4.905660 -0.000003 -0.000000 -0.000002 12.296724 10.100933 15.150655 40.428463 3.775565 -34.460041 -3.676301 72.411041 -2.873743 -15.295963 1.111000 -44.194511 2.243536 -5.255032 -3.180155 14.282875 -0.826593 6.952497 -0.000002 -12.690590 0.000001 15.314957 -17.330181 2.886245 1.665665 -1.955920 -2.878296 4.727796 -4.170584 4.993918 11.020513 0.000003 -0.000000 12.109034 -3.735710 -2.866779 0.000000 -0.000000 -0.000000 1.291982 -1.928547 -1.498088 14.800114 0.567468 3.865604 14.242553 -1.341733 -6.660646 19.631939 0.143926 -0.648242 48.610901 -0.015149 -6.348604 0.353031 -1.511150 -0.031940 20.222771 3.684306 2.316629 18.787247 0.000005 0.000001 10.751611 -0.479868 1.397904 -0.000000 -0.000000 -0.000000 3.273805 0.305947 -0.580110 21.486792 11.830363 2.266131 8.162916 0.000003 0.000000 18.399054 -3.798978 -4.940567 0.000003 0.000000 -0.000001 11.451508 14.255640 4.110240 -0.241078 -0.736941 37.064709 -7.424443 -10.443774 -23.728231 1.619345 -1.792726 -0.927047 -0.000000 0.000000 0.000002 -27.485037 -19.427391 -7.341014 0.910948 1.151816 37.306355 21.806408 3.703745 10.534895 -1.484309 0.946611 -4.025167 -0.000000 -0.000000 -0.000001 
65.881752 93.113342 -188.230820 0.733359 -6.793664 -13.981291 -1.120837 0.380653 6.385844 0.122812 0.929173 -2.680349 2.242645 -0.739687 12.650965 -1.146039 4.241946 29.051270 -1.989898 -5.203145 -3.714105 -2.754467 -6.046081 -7.928624 0.000076 -0.000022 0.000007 -0.030297 0.016021 0.079089 0.680835 -3.722044 -10.520307 -0.738488 3.754711 -10.538437 -7.855649 0.766925 14.389562 -48.978100 11.388033 -28.515139 179.993515 -84.290024 -179.221466 3.360837 5.753335 -51.181229 -5.882102 9.861278 0.702591 -10.936859 -0.360574 7.156196 -0.000000 8.774814 -0.000001 -16.218649 18.488874 6.111314 -1.844030 2.498502 -2.507275 -10.163591 4.678941 4.621104 -20.975998 -0.000003 0.000004 -21.226257 2.451696 -3.593991 -0.000002 -0.000006 -0.000001 -1.362681 2.240796 -0.746322 -21.334894 0.584910 3.008321 -13.821197 -0.000002 0.000003 -23.887135 -0.249076 -0.839481 -60.376110 2.438919 -1.198299 -0.294025 1.679686 0.833255 -14.218194 0.093215 1.300580 -34.212006 -0.287561 0.967170 -20.033178 0.964536 1.212841 0.000001 0.000000 0.000000 -3.440386 0.788233 0.501656 -15.928167 -3.167305 2.999703 -6.338817 -0.000001 0.000001 -18.123415 3.648178 -4.905660 -0.000003 -0.000000 -0.000002 12.162083 10.088486 15.086584 40.064259 3.896311 -34.683567 -3.154938 71.531403 -2.361783 -15.471413 1.262261 -45.055054 2.243538 -5.255032 -3.180154 14.282879 -0.826593 6.952495 -0.000002 -12.690593 0.000001 15.424206 -17.305079 2.826849 1.665667 -1.955919 -2.878296 4.727794 -4.170584 4.993918 11.020511 0.000004 -0.000001 12.109031 -3.735708 -2.866779 0.000000 -0.000000 -0.000001 1.291983 -1.928547 -1.498088 14.800114 0.567469 3.865603 14.242554 -1.341733 -6.660648 19.631939 0.143927 -0.648242 48.745216 -0.031838 -6.332492 0.353028 -1.511150 -0.031940 20.222767 3.684308 2.316628 18.787245 0.000005 0.000000 10.751611 -0.479867 1.397904 0.000000 0.000000 0.000000 3.273802 0.305947 -0.580110 21.486788 11.830364 2.266130 8.162916 0.000000 -0.000000 18.399052 -3.798978 -4.940566 0.000003 0.000000 -0.000001 11.428851 13.684165 4.029316 -0.238057 -0.727252 36.829922 -7.340558 -10.202280 -23.654020 1.624104 -1.792497 -0.851021 -0.000000 0.000000 0.000002 -27.131405 -18.514311 -7.570825 0.923473 1.186392 37.965111 21.486408 3.831714 10.653795 -1.480767 0.919707 -4.184698 -0.000000 -0.000000 -0.000001 
65.615952 93.155113 -188.519852 0.701677 -6.496416 -13.914589 -1.183644 0.376212 6.475221 0.089433 0.882624 -2.654651 2.122614 -0.854496 12.641351 -1.659560 4.778265 29.184505 -2.124854 -5.493463 -3.702800 -2.995657 -6.264445 -7.491873 0.000077 -0.000023 0.000005 -0.046277 0.022298 0.081813 0.671444 -3.719659 -10.535258 -0.755148 3.766294 -10.555666 -7.360349 0.267232 14.266051 -47.975574 10.375323 -27.693380 -179.682465 -85.667038 -179.687302 3.752876 5.458905 -49.999985 -5.882099 9.861279 0.702589 -10.936857 -0.360575 7.156196 0.000001 8.774814 -0.000002 -16.222891 18.436377 6.111959 -1.844031 2.498503 -2.507275 -10.163589 4.678940 4.621103 -20.975994 -0.000004 0.000002 -21.226254 2.451692 -3.593994 0.000000 -0.000006 -0.000001 -1.362681 2.240797 -0.746323 -21.334888 0.584907 3.008320 -13.821197 -0.000004 0.000002 -23.887133 -0.249079 -0.839482 -60.280159 2.441293 -1.230388 -0.294024 1.679686 0.833255 -14.218190 0.093214 1.300578 -34.211998 -0.287565 0.967169 -20.033175 0.964534 1.212841 -0.000001 0.000000 -0.000000 -3.440385 0.788233 0.501655 -15.928167 -3.167307 2.999703 -6.338816 -0.000001 0.000001 -18.123411 3.648176 -4.905662 -0.000003 -0.000000 -0.000002 12.046466 10.165292 15.034113 39.494083 4.092893 -35.039619 -2.428202 70.616142 -1.649318 -15.715814 1.441086 -45.919903 2.243540 -5.255032 -3.180156 14.282877 -0.826595 6.952496 -0.000003 -12.690590 0.000000 15.549852 -17.274668 2.738263 1.665664 -1.955920 -2.878297 4.727794 -4.170583 4.993918 11.020512 0.000002 -0.000001 12.109035 -3.735711 -2.866781 0.000000 -0.000000 -0.000001 1.291983 -1.928548 -1.498088 14.800109 0.567467 3.865603 14.242551 -1.341734 -6.660649 19.631939 0.143925 -0.648244 48.855316 -0.051659 -6.330026 0.353029 -1.511149 -0.031940 20.222773 3.684306 2.316628 18.787247 0.000004 -0.000001 10.751611 -0.479868 1.397904 -0.000000 -0.000000 -0.000000 3.273808 0.305946 -0.580110 21.486790 11.830363 2.266131 8.162916 0.000001 -0.000000 18.399054 -3.798979 -4.940567 0.000003 -0.000001 -0.000001 11.347902 13.063902 3.730520 -0.227985 -0.724188 36.681076 -7.342817 -9.808963 -23.540710 1.631231 -1.799608 -0.764742 -0.000000 0.000000 0.000002 -26.591787 -17.475983 -8.076772 0.922858 1.236030 38.636372 21.175514 4.030731 10.534501 -1.475765 0.909025 -4.240966 0.000000 0.000000 -0.000001 
65.142456 93.196663 -188.786209 0.703984 -6.248222 -13.760868 -1.256515 0.365947 6.619960 0.051085 0.790945 -2.634579 2.032007 -0.935330 12.662291 -2.087402 5.202122 29.022039 -2.229529 -5.772601 -3.688626 -3.139393 -6.536847 -7.251026 0.000077 -0.000022 0.000006 -0.051660 0.017051 0.076526 0.655160 -3.735796 -10.553082 -0.751960 3.764322 -10.568896 -6.930825 -0.231591 14.163801 -47.439178 9.463038 -27.068724 -179.883957 -86.681221 -179.709869 4.259542 5.186640 -48.665684 -5.882101 9.861279 0.702590 -10.936860 -0.360575 7.156196 0.000000 8.774813 -0.000001 -16.200119 18.364742 6.116392 -1.844031 2.498502 -2.507275 -10.163590 4.678941 4.621104 -20.975996 -0.000003 0.000002 -21.226254 2.451693 -3.593993 0.000000 -0.000006 -0.000001 -1.362679 2.240796 -0.746322 -21.334892 0.584909 3.008320 -13.821197 -0.000003 0.000002 -23.887125 -0.249078 -0.839481 -60.316776 2.424188 -1.278525 -0.294022 1.679686 0.833255 -14.218194 0.093214 1.300579 -34.212006 -0.287563 0.967170 -20.033180 0.964535 1.212842 0.000000 -0.000000 -0.000000 -3.440386 0.788233 0.501655 -15.928167 -3.167306 2.999703 -6.338817 -0.000001 0.000001 -18.123415 3.648176 -4.905662 -0.000003 -0.000000 -0.000002 11.944841 10.322350 14.984171 38.721756 4.375654 -35.442287 -1.723179 69.746979 -1.002110 -16.017057 1.614896 -46.579666 2.243536 -5.255032 -3.180155 14.282877 -0.826593 6.952497 -0.000002 -12.690588 0.000000 15.664049 -17.311893 2.661063 1.665667 -1.955920 -2.878297 4.727797 -4.170583 4.993918 11.020513 0.000003 -0.000001 12.109033 -3.735710 -2.866779 0.000000 -0.000000 0.000000 1.291985 -1.928548 -1.498088 14.800113 0.567467 3.865603 14.242553 -1.341735 -6.660648 19.631939 0.143925 -0.648242 49.006435 -0.061115 -6.371943 0.353029 -1.511150 -0.031940 20.222771 3.684305 2.316629 18.787245 0.000004 0.000000 10.751610 -0.479869 1.397904 -0.000000 0.000000 -0.000000 3.273804 0.305947 -0.580110 21.486790 11.830359 2.266132 8.162917 -0.000000 0.000000 18.399055 -3.798978 -4.940567 0.000003 -0.000002 -0.000001 11.274771 12.324063 3.417217 -0.215563 -0.710678 36.435677 -7.475762 -9.289938 -23.399641 1.636705 -1.813657 -0.681906 -0.000000 0.000000 0.000002 -25.898138 -16.297337 -8.832430 0.931456 1.268656 39.647068 20.785921 4.277974 10.219828 -1.472291 0.888464 -4.156878 -0.000000 -0.000001 -0.000000 
